<svg height="496" xmlns="http://www.w3.org/2000/svg" width="560" viewBox="0 0 560 495.856" xmlns:xlink="http://www.w3.org/1999/xlink"><defs/><path fill="#c00000" fill-rule="nonzero" id="shape1" transform="translate(0.000000,0.217093)" d="M196.1,1.7C235.8,.0,275.6,.9,315.3,.0C348.3,.0,381.8,-0.9,414.8,1.1C439.5,2.6,463.5,7.4,480.6,26.8C497.6,46.1,502.1,73.2,500.5,98.1C508.4,100.3,516.4,103.0,523.6,107.0C540.6,116.4,551.7,127.5,557.1,146.5C558.5,151.2,559.4,156.0,559.9,160.9C560.3,165.9,560.3,170.8,559.9,175.7C558.0,197.7,550.0,219.5,546.7,241.4C540.8,279.4,539.8,318.8,530.9,356.2C526.9,372.8,521.1,388.8,512.8,403.7C495.5,434.4,472.0,449.5,438.7,458.9C439.4,468.3,442.2,482.0,436.2,490.1C433.4,493.9,431.5,494.8,426.9,495.5C425.1,494.7,423.5,493.7,422.1,492.2C414.2,483.6,416.2,471.9,416.6,461.1C398.4,463.9,379.7,462.9,361.4,462.6C314.0,460.0,266.2,461.0,218.7,461.7C194.0,462.1,169.0,463.7,144.4,461.6C144.7,469.1,146.2,480.5,143.0,487.3C140.8,492.1,138.0,493.9,133.2,495.6C131.3,495.1,129.5,494.3,128.1,492.9C119.5,484.6,120.9,472.4,120.7,461.5C105.8,457.5,92.2,450.7,79.7,441.6C27.1,403.2,30.2,338.2,20.0,280.2C15.0,251.3,6.9,222.9,2.5,193.9C-1.1,170.6,-2.8,144.9,11.9,125.0C23.8,108.9,40.8,102.6,59.9,99.7C59.5,73.1,61.9,43.3,81.4,23.2C108.1,-4.2,160.7,2.2,196.1,1.7zM366.5,24.2C306.6,25.7,246.7,24.6,186.8,25.6C165.6,25.9,138.5,24.0,118.0,28.3C111.4,29.7,105.4,33.8,100.8,38.6C90.1,49.7,82.9,68.7,83.4,84.1C83.5,89.1,84.4,95.0,88.2,98.5C94.4,104.3,105.0,107.8,112.2,112.5C134.9,127.3,142.3,158.2,143.6,183.4C145.1,210.6,146.0,243.3,141.2,270.1C161.7,265.0,183.3,258.7,204.4,257.0C257.7,249.4,313.0,246.8,366.1,257.6C374.2,259.2,411.3,270.5,415.9,267.8C418.8,225.5,404.8,149.2,439.2,118.8C451.2,108.2,476.3,102.6,477.6,84.3C478.5,71.2,469.0,51.9,460.4,42.2C448.0,28.4,431.0,24.9,413.3,24.1C398.3,23.3,381.5,22.9,366.5,24.2zM61.3,123.8C51.8,126.1,43.8,129.2,35.1,133.7C20.4,157.6,23.4,179.5,29.7,205.7C35.4,229.4,42.7,253.5,46.5,277.6C55.1,331.6,50.2,395.1,103.0,427.5C111.7,432.8,120.0,435.9,130.0,437.1C177.7,442.8,231.8,438.2,280.1,437.9C331.5,437.5,389.5,445.6,439.7,433.3C461.2,428.1,478.3,411.5,489.5,393.0C519.0,343.9,514.3,263.3,526.9,206.6C529.9,193.7,534.9,180.9,537.2,168.0C532.4,151.5,526.8,137.4,510.7,128.6C499.8,122.7,484.6,122.0,472.7,125.6C462.7,128.7,454.3,135.4,449.5,144.7C433.0,177.1,444.4,331.3,442.6,376.3C333.7,376.5,225.2,374.0,116.3,375.3C114.5,329.5,117.0,282.4,117.8,236.5C118.1,214.8,120.4,191.3,116.3,169.9C113.7,156.2,108.0,142.0,97.4,132.4C87.9,123.7,79.0,122.7,66.8,123.3C64.9,123.4,63.1,123.5,61.3,123.8zM252.8,274.5C215.4,275.6,177.6,284.7,141.2,293.1C141.9,311.4,144.7,332.3,139.7,350.2C194.1,347.9,249.3,350.5,303.9,350.8C341.2,350.9,381.1,348.3,418.1,352.7C416.2,333.0,416.6,313.0,416.5,293.2C362.3,277.0,309.5,270.2,252.8,274.5z"/></svg>